# xmcd
#
# Track frame offsets:
#	150
#	16855
#	35323
#	52064
#	67479
#	78880
#	93663
#	108691
#	127315
#	143382
#	157943
#	173644
#	188698
#	207275
#	225227
#	242777
#	259721
#	272596
#	287975
#	304132
#	321015
#
# Disc length: 4496 seconds
#
# Revision: 0
# Processed by: cddbd v1.5.1PL0 Copyright (c) Steve Scherf et al.
# Submitted via: audiograbber 1.83.01
#
DISCID=27118e15
DTITLE=Various Artist - Åâðîdance 6. (2003)
DYEAR=1900
DGENRE=
TTITLE0=Pink. - Just Like A Pill. (Jacknife Lee Mix Edit)
TTITLE1=Westlife. - Tonight. (7' Metro Mix)
TTITLE2=Modern Talking. - TV Makes A Superstar. (Radio Edit)
TTITLE3=Danni Minogue. - I Begin To Wonder.(Radio Version)
TTITLE4=Fragma. - Man In The Moon. (Radio Edit)
TTITLE5=Holly Valance. - Tuck Your Shirt In.
TTITLE6=Cheeky Girls. - Cheeky Song. (Touch My Bum) (Radio Edit)
TTITLE7=A-ha. - Did Anyone Approach You? (Original Album Version)
TTITLE8=Missy Elliott. - 4 My People. (Basement Jaxx Rmx Radio Edit)
TTITLE9=Milky. - In My Mind. (Radio Edit)
TTITLE10=A Touch Of Class. - New Yourk City. (Radio Edit)
TTITLE11=Marta. - Yeah, Yeah, Yeah. (Single Edit)
TTITLE12=Jay-Jay Johanson. - Automatic Lover.
TTITLE13=B3. - You're May Angel. (Club Mix)
TTITLE14=Rob Dougan. - Furious Angels. (Radio Edit)
TTITLE15=Dj Bobo. - I Believe. (Radio Special Edit)
TTITLE16=Kira. - I'll Be Your Angel. (Radio Edit)
TTITLE17=Right Said Fred. - I Love You. (But I Don't Like You) (SH 101 Radio Ve
TTITLE17=rsion)
TTITLE18=Marcello. - Una Festa Sui Prati. (Ja Ja Ja) (Radio Edit)
TTITLE19=Gloria Gaynor. - I Never Knew. (HQ2 Radio Mix)
TTITLE20=Chicane feat. Peter Cunnah. - Love On The Run. [CD Single Edit)
EXTD=
EXTT0=
EXTT1=
EXTT2=
EXTT3=
EXTT4=
EXTT5=
EXTT6=
EXTT7=
EXTT8=
EXTT9=
EXTT10=
EXTT11=
EXTT12=
EXTT13=
EXTT14=
EXTT15=
EXTT16=
EXTT17=
EXTT18=
EXTT19=
EXTT20=
PLAYORDER=
